HIERARCHY
ROOT Hips
{
	OFFSET 0.000000 0.000000 0.000000
	CHANNELS 6 Xposition Yposition Zposition Zrotation Yrotation Xrotation 
	JOINT LeftUpLeg_virtual
	{
		OFFSET 0.000000 0.000000 0.000000
		CHANNELS 3 Zrotation Yrotation Xrotation
		JOINT LeftUpLeg
		{
			OFFSET 10.205400 -3.823500 0.155100
			CHANNELS 3 Zrotation Yrotation Xrotation
			JOINT LeftLeg
			{
				OFFSET 0.708757 -12.982077 0.567790
				CHANNELS 3 Zrotation Yrotation Xrotation
				JOINT LeftFoot
				{
					OFFSET -0.708756 -10.717838 -2.184338
					CHANNELS 3 Zrotation Yrotation Xrotation
					JOINT LeftToeBase
					{
						OFFSET 0.108149 -7.191104 7.560241
						CHANNELS 3 Zrotation Yrotation Xrotation
						End Site
						{
							OFFSET 0.000000 0.000000 0.000000
						}
					}
				}
			}
		}
	}
	JOINT RightUpLeg_virtual
	{
		OFFSET 0.000000 0.000000 0.000000
		CHANNELS 3 Zrotation Yrotation Xrotation
		JOINT RightUpLeg
		{
			OFFSET -10.205400 -3.823500 0.005500
			CHANNELS 3 Zrotation Yrotation Xrotation
			JOINT RightLeg
			{
				OFFSET -0.708756 -12.982134 0.610632
				CHANNELS 3 Zrotation Yrotation Xrotation
				JOINT RightFoot
				{
					OFFSET 0.708754 -10.717769 -1.945823
					CHANNELS 3 Zrotation Yrotation Xrotation
					JOINT RightToeBase
					{
						OFFSET -0.108140 -7.191069 7.372968
						CHANNELS 3 Zrotation Yrotation Xrotation
						End Site
						{
							OFFSET 0.000000 0.000000 0.000000
						}
					}
				}
			}
		}
	}
	JOINT Spine_virtual
	{
		OFFSET 0.000000 0.000000 0.000000
		CHANNELS 3 Zrotation Yrotation Xrotation
		JOINT Spine
		{
			OFFSET 0.000000 6.876099 0.125700
			CHANNELS 3 Zrotation Yrotation Xrotation
			JOINT Spine1
			{
				OFFSET 0.000000 8.022060 0.146608
				CHANNELS 3 Zrotation Yrotation Xrotation
				JOINT Spine2
				{
					OFFSET 0.000000 9.168068 0.167552
					CHANNELS 3 Zrotation Yrotation Xrotation
					JOINT Neck_virtual
					{
						OFFSET 0.000000 0.000000 0.000000
						CHANNELS 3 Zrotation Yrotation Xrotation
						JOINT Neck
						{
							OFFSET 0.000000 10.314075 0.188496
							CHANNELS 3 Zrotation Yrotation Xrotation
							JOINT Head
							{
								OFFSET 0.000000 7.643700 -2.377400
								CHANNELS 3 Zrotation Yrotation Xrotation
								End Site
								{
									OFFSET 0.000000 0.000000 0.000000
								}
							}
						}
					}
					JOINT LeftShoulder_virtual
					{
						OFFSET 0.000000 0.000000 0.000000
						CHANNELS 3 Zrotation Yrotation Xrotation
						JOINT LeftShoulder
						{
							OFFSET 4.392200 8.824978 0.174984
							CHANNELS 3 Zrotation Yrotation Xrotation
							JOINT LeftArm
							{
								OFFSET 8.771219 -2.981674 -0.026999
								CHANNELS 3 Zrotation Yrotation Xrotation
								JOINT LeftForeArm
								{
									OFFSET 8.512804 0.000000 -0.000000
									CHANNELS 3 Zrotation Yrotation Xrotation
									JOINT LeftHand
									{
										OFFSET 18.484802 0.000000 -0.000000
										CHANNELS 3 Zrotation Yrotation Xrotation
										End Site
										{
											OFFSET 0.000000 0.000000 0.000000
										}
									}
								}
							}
						}
					}
					JOINT RightShoulder_virtual
					{
						OFFSET 0.000000 0.000000 0.000000
						CHANNELS 3 Zrotation Yrotation Xrotation
						JOINT RightShoulder
						{
							OFFSET -4.392200 8.824993 0.141379
							CHANNELS 3 Zrotation Yrotation Xrotation
							JOINT RightArm
							{
								OFFSET -8.771282 -2.981682 -0.094208
								CHANNELS 3 Zrotation Yrotation Xrotation
								JOINT RightForeArm
								{
									OFFSET -8.494598 0.000000 0.000000
									CHANNELS 3 Zrotation Yrotation Xrotation
									JOINT RightHand
									{
										OFFSET -18.483803 0.000000 0.000001
										CHANNELS 3 Zrotation Yrotation Xrotation
										End Site
										{
											OFFSET 0.000000 0.000000 0.000000
										}
									}
								}
							}
						}
					}
				}
			}
		}
	}
}
MOTION
Frames: 13
Frame Time: 0.033333
8.540752 36.425800 -5.936319 -179.998215 1.806866 -179.675421 -1.376070 -4.204029 8.982138 -6.258437 -2.764782 -14.966454 13.054701 4.606085 18.568610 -4.548684 -0.493719 8.983242 0.000000 0.000000 0.000000 2.508271 -1.575867 7.027119 -2.388857 2.496608 -11.646076 -8.423771 1.081278 18.504263 8.218967 4.362981 5.155141 0.000000 0.000000 0.000000 1.083321 -0.023963 -4.909165 -6.117152 2.846408 -6.604842 -0.993898 -3.418163 4.201266 0.005718 0.007604 0.058977 -1.656649 -1.595348 6.753239 -0.553147 -1.687352 8.728605 0.000000 0.000000 0.000000 -0.155778 -0.694822 3.991697 7.606859 4.539522 -4.842911 -1.416534 19.430840 -38.893945 -2.745331 -48.368596 -6.517829 0.000000 0.000000 0.000000 -3.485822 -0.051165 3.689233 6.574665 -12.636795 -10.026350 14.097428 -24.084360 -30.722778 -2.072185 40.380550 -3.289802 0.000000 0.000000 0.000000 
8.538064 36.431957 -5.930612 179.986631 1.856197 -179.549704 -1.072658 -4.214302 9.107163 -6.713414 -2.962567 -14.764357 13.257366 4.190601 18.681186 -5.000198 -0.732506 9.232130 0.000000 0.000000 0.000000 2.431781 -1.607289 7.132883 -2.253874 2.212274 -11.440808 -8.582709 0.610627 18.802280 7.875064 4.024908 5.267712 0.000000 0.000000 0.000000 1.097103 0.029974 -4.979016 -6.119047 2.884688 -6.630172 -0.998877 -3.418062 4.190006 0.006683 0.017374 0.100232 -1.628000 -1.739838 6.775915 -0.469953 -1.670560 8.779197 0.000000 0.000000 0.000000 -0.169210 -0.699721 4.003570 7.590983 4.471388 -4.926775 -1.437755 19.427361 -38.831726 -2.746330 -48.259002 -6.461988 0.000000 0.000000 0.000000 -3.471572 -0.080650 3.706353 6.545961 -12.641548 -10.098104 14.026116 -24.086063 -30.689269 -1.994773 40.539519 -3.209898 0.000000 0.000000 0.000000 
8.525270 36.436165 -5.916609 179.993885 1.992693 -179.558898 -1.031314 -4.147062 9.083521 -6.630431 -2.912930 -14.804049 12.867218 4.329674 18.731046 -4.706791 -0.673881 9.212738 0.000000 0.000000 0.000000 2.454414 -1.532991 7.055418 -2.301385 2.204108 -11.441519 -8.609010 0.760018 18.863867 7.917716 4.044376 5.257661 0.000000 0.000000 0.000000 1.134502 0.032639 -4.920302 -6.093532 2.895254 -6.597075 -0.987681 -3.453347 4.146132 0.023363 -0.008486 0.103730 -1.649444 -1.543030 6.821025 -0.418663 -1.726182 8.831254 0.000000 0.000000 0.000000 -0.208057 -0.605466 3.977283 7.617193 4.469660 -4.886251 -1.408664 19.381017 -38.604721 -2.769621 -48.099060 -6.345943 0.000000 0.000000 0.000000 -3.473273 0.068875 3.766845 6.556033 -12.488702 -10.075791 13.995029 -24.148412 -30.736394 -2.003863 40.622670 -3.263212 0.000000 0.000000 0.000000 
8.500563 36.437141 -5.900763 179.918944 2.101956 -179.550524 -1.136593 -4.159870 9.102129 -6.795006 -2.817993 -14.879372 13.146948 4.347434 18.741771 -4.827403 -0.680516 9.302435 0.000000 0.000000 0.000000 2.406625 -1.522496 6.993452 -2.380783 2.266133 -11.491948 -8.601509 0.843791 18.912741 8.016541 3.992268 5.237086 0.000000 0.000000 0.000000 1.092433 0.179753 -4.896785 -6.125724 2.991034 -6.535889 -0.997596 -3.413711 4.167722 0.013746 0.008091 0.073824 -1.595888 -1.664886 6.788430 -0.333110 -1.791991 8.745538 0.000000 0.000000 0.000000 -0.170272 -0.720939 4.056445 7.615211 4.245402 -4.925192 -1.476007 19.354553 -38.498327 -2.509865 -47.908190 -6.450762 0.000000 0.000000 0.000000 -3.441717 -0.057881 3.743117 6.553359 -12.500898 -10.017265 13.928973 -24.272500 -30.731760 -1.942388 40.589601 -3.232618 0.000000 0.000000 0.000000 
8.463514 36.441498 -5.874776 179.917114 2.228817 -179.548748 -1.139984 -4.173199 9.157064 -6.903071 -2.708805 -15.012546 13.219722 4.417674 18.783413 -4.839247 -0.691588 9.384083 0.000000 0.000000 0.000000 2.439269 -1.526177 6.968009 -2.514187 2.325849 -11.602104 -8.599792 0.999160 18.940849 8.118089 3.963230 5.230231 0.000000 0.000000 0.000000 1.112517 0.035608 -4.849877 -6.126013 3.081194 -6.486708 -0.983459 -3.388122 4.140365 0.007101 0.033653 0.103635 -1.594142 -1.706183 6.718375 -0.212887 -1.875047 8.799054 0.000000 0.000000 0.000000 -0.156627 -0.708189 3.951850 7.619641 4.140991 -4.879460 -1.558306 19.435964 -38.424039 -2.361205 -47.720131 -6.383708 0.000000 0.000000 0.000000 -3.424694 0.008580 3.704807 6.576600 -12.344168 -9.862022 13.923541 -24.436803 -30.766840 -1.860708 40.491475 -3.208442 0.000000 0.000000 0.000000 
8.409478 36.452370 -5.832109 -179.991290 2.349673 -179.550852 -1.034728 -4.173356 9.224881 -6.995882 -2.569703 -15.184173 13.153148 4.492226 18.836649 -4.745358 -0.703608 9.444389 0.000000 0.000000 0.000000 2.576502 -1.563921 6.992125 -2.701211 2.380430 -11.773317 -8.584505 1.201135 18.918091 8.230447 3.935271 5.317266 0.000000 0.000000 0.000000 1.157469 0.034688 -4.739022 -6.067369 3.160599 -6.430297 -0.945383 -3.367286 4.089797 0.026955 0.036490 0.132111 -1.588060 -1.554656 6.646368 -0.107894 -2.007215 8.955139 0.000000 0.000000 0.000000 -0.165036 -0.656170 3.888369 7.602633 3.975626 -4.960460 -1.699338 19.474099 -38.239330 -2.169985 -47.511120 -6.286574 0.000000 0.000000 0.000000 -3.443844 -0.039004 3.597513 6.610841 -12.222289 -9.865540 13.929314 -24.569522 -30.830169 -1.761086 40.395515 -3.166330 0.000000 0.000000 0.000000 
8.338687 36.465748 -5.763706 179.932413 2.620604 -179.565318 -1.163013 -4.155211 9.279142 -7.232778 -2.394723 -15.377515 13.472546 4.584428 18.887112 -4.776953 -0.778513 9.550260 0.000000 0.000000 0.000000 2.570790 -1.488809 6.983149 -3.004218 2.507604 -12.067491 -8.500524 1.370456 18.938100 8.386288 3.886829 5.378662 0.000000 0.000000 0.000000 1.100899 0.062693 -4.576611 -6.028194 3.248255 -6.320669 -0.937294 -3.363062 4.028102 0.000981 0.011474 0.117246 -1.549157 -1.663156 6.559995 0.034479 -2.136890 9.098995 0.000000 0.000000 0.000000 -0.094298 -0.638767 3.799495 7.536515 3.842381 -4.959577 -1.943999 19.705413 -38.090886 -1.892029 -47.457862 -6.268983 0.000000 0.000000 0.000000 -3.361659 0.049898 3.560294 6.622069 -11.976318 -9.662144 14.068770 -24.832968 -30.981806 -1.633310 40.230692 -3.126552 0.000000 0.000000 0.000000 
8.243447 36.485321 -5.669936 179.993175 2.776371 -179.571260 -1.125911 -4.171457 9.307339 -7.417059 -2.185479 -15.607426 13.474995 4.642606 18.967896 -4.587156 -0.867815 9.604416 0.000000 0.000000 0.000000 2.700331 -1.567655 7.024086 -3.337358 2.513976 -12.386407 -8.373516 1.688291 18.855045 8.513622 3.818852 5.586597 0.000000 0.000000 0.000000 1.113530 0.026830 -4.368966 -5.907060 3.319136 -6.218653 -0.899495 -3.338544 3.947683 0.006930 0.006691 0.182241 -1.505424 -1.469059 6.385774 0.122946 -2.328896 9.266768 0.000000 0.000000 0.000000 -0.085985 -0.598722 3.681203 7.429194 3.590186 -5.030291 -2.224847 19.945225 -37.618534 -1.673859 -47.454109 -6.082590 0.000000 0.000000 0.000000 -3.361241 0.028644 3.372074 6.611483 -11.788312 -9.398659 14.283000 -25.087841 -31.333886 -1.525130 40.138966 -3.085026 0.000000 0.000000 0.000000 
8.112485 36.503376 -5.546901 179.960103 3.427244 -179.589961 -1.226914 -4.039568 9.370233 -7.779022 -1.889805 -15.857674 13.723783 4.831513 19.023552 -4.378215 -0.982918 9.687968 0.000000 0.000000 0.000000 2.754303 -1.380430 6.963659 -3.806070 2.750124 -12.865933 -8.268737 2.019031 18.852910 8.773556 3.827008 5.803199 0.000000 0.000000 0.000000 1.088873 0.105086 -4.096505 -5.769971 3.452736 -6.129787 -0.844152 -3.264444 3.853892 0.044041 0.042126 0.132141 -1.520291 -1.326222 6.380557 0.156844 -2.574832 9.723951 0.000000 0.000000 0.000000 -0.092641 -0.602593 3.611069 7.186810 3.318849 -4.912603 -2.462774 20.268320 -36.898564 -1.228503 -47.488410 -6.046233 0.000000 0.000000 0.000000 -3.352529 0.067092 3.324924 6.547068 -11.580427 -9.210625 14.691117 -25.383741 -31.355250 -1.667595 40.196087 -3.323197 0.000000 0.000000 0.000000 
7.949834 36.522255 -5.411239 -179.963846 4.067249 -179.579429 -1.213084 -4.023740 9.444377 -8.216211 -1.578922 -16.152931 13.972987 5.007168 19.119358 -4.035781 -1.130308 9.771346 0.000000 0.000000 0.000000 2.936197 -1.373808 6.984990 -4.365865 2.992274 -13.381740 -8.154670 2.465933 18.771011 9.082117 3.883800 6.109542 0.000000 0.000000 0.000000 1.134389 0.155983 -3.813439 -5.545644 3.552803 -6.052774 -0.801451 -3.226264 3.755052 0.015584 0.029279 0.097890 -1.444798 -1.380387 6.191687 0.255135 -2.751295 10.008978 0.000000 0.000000 0.000000 -0.027166 -0.560792 3.529642 6.914271 2.954412 -4.876277 -2.861045 20.539788 -36.047491 -0.910337 -47.631950 -5.852407 0.000000 0.000000 0.000000 -3.276075 0.072864 3.166585 6.511573 -11.387558 -9.052964 15.301666 -25.621081 -31.906812 -1.557629 40.413970 -3.333461 0.000000 0.000000 0.000000 
7.760924 36.540436 -5.280836 -179.952836 4.802192 -179.573801 -1.289809 -3.972441 9.552797 -8.726415 -1.236273 -16.495831 14.289282 5.179023 19.196851 -3.658932 -1.313156 9.894145 0.000000 0.000000 0.000000 3.036390 -1.351304 7.013300 -4.986969 3.300818 -14.028621 -8.072508 2.847718 18.585879 9.442463 3.967429 6.469619 0.000000 0.000000 0.000000 1.130340 0.282274 -3.514700 -5.314615 3.572016 -5.973251 -0.758218 -3.204686 3.664377 0.024820 0.048987 0.151556 -1.393818 -1.380253 6.057135 0.244863 -3.006384 10.603455 0.000000 0.000000 0.000000 0.007142 -0.533896 3.335725 6.554319 2.522578 -5.068260 -3.178157 20.774707 -34.976326 -0.629511 -47.835083 -5.580371 0.000000 0.000000 0.000000 -3.245675 0.075991 2.951370 6.473331 -11.205430 -8.746716 16.237002 -25.804810 -32.356058 -1.474984 40.821875 -3.376243 0.000000 0.000000 0.000000 
7.557527 36.554321 -5.157001 179.986618 5.835637 -179.518381 -1.445914 -3.830292 9.692826 -9.324632 -0.729626 -16.869056 14.803938 5.319835 19.273149 -3.377009 -1.541937 9.912841 0.000000 0.000000 0.000000 3.026240 -1.166227 7.075295 -5.630303 3.715068 -14.738232 -8.003089 3.059207 18.323415 9.855426 4.077800 6.949073 0.000000 0.000000 0.000000 1.080384 0.526438 -3.216047 -5.086313 3.547964 -5.902379 -0.749573 -3.216792 3.537177 -0.007942 -0.010466 0.106292 -1.326856 -1.398062 5.906590 0.231559 -3.241561 11.155652 0.000000 0.000000 0.000000 0.082559 -0.445189 3.151297 6.106997 2.088028 -4.714636 -3.745320 21.068596 -34.111321 -0.072726 -48.108953 -5.574279 0.000000 0.000000 0.000000 -3.173769 0.172392 2.854409 6.518920 -10.917662 -8.598648 17.540832 -25.831379 -32.796939 -1.468227 41.395147 -3.533100 0.000000 0.000000 0.000000 
7.347056 36.565529 -5.038024 -179.923029 6.698746 -179.512698 -1.491180 -3.763994 9.837148 -9.887121 -0.316488 -17.231536 15.176098 5.451801 19.442511 -2.921258 -1.626109 9.816119 0.000000 0.000000 0.000000 3.074175 -1.063508 7.203270 -6.198911 3.800903 -15.353386 -7.874405 3.459543 17.720207 10.387383 4.174084 7.899242 0.000000 0.000000 0.000000 1.079062 0.506407 -2.870653 -4.788115 3.619420 -5.840758 -0.696236 -3.139482 3.413247 0.015054 0.063620 0.163081 -1.319608 -1.360027 5.748473 0.095100 -3.549148 11.839960 0.000000 0.000000 0.000000 0.077240 -0.471379 2.989751 5.544857 1.487208 -4.576768 -4.378346 21.147316 -33.258875 0.552145 -48.455408 -5.605568 0.000000 0.000000 0.000000 -3.182253 0.121155 2.572232 6.633640 -10.834169 -8.249701 19.286286 -25.784338 -33.437218 -1.430620 42.236749 -3.678585 0.000000 0.000000 0.000000 
